HIERARCHY
ROOT hip
{
	OFFSET 0.000000 0.000000 0.000000 
	CHANNELS 6 Xposition Yposition Zposition Xrotation Zrotation Yrotation
	JOINT abdomen
	{
		OFFSET 0.000000 3.402643 0.000000 
		CHANNELS 3 Xrotation Zrotation Yrotation
		JOINT chest
		{
			OFFSET 0.000000 8.438565 -0.680529 
			CHANNELS 3 Xrotation Zrotation Yrotation
			JOINT neck
			{
				OFFSET 0.000000 10.207942 -0.272212 
				CHANNELS 3 Xrotation Zrotation Yrotation
				JOINT head
				{
					OFFSET 0.000000 3.130431 0.000000 
					CHANNELS 3 Xrotation Zrotation Yrotation
					End Site
					{
						OFFSET 0.000000 3.130435 0.000000 
					}
				}
			}
			JOINT lCollar
			{
				OFFSET 3.470700 6.669187 -0.816635 
				CHANNELS 3 Yrotation Zrotation Xrotation
				JOINT lShldr
				{
					OFFSET 3.198488 0.000000 0.000000 
					CHANNELS 3 Zrotation Yrotation Xrotation
					JOINT lForeArm
					{
						OFFSET 10.139888 0.000000 0.000000 
						CHANNELS 3 Yrotation Zrotation Xrotation
						JOINT lHand
						{
							OFFSET 8.370511 0.000000 0.000000 
							CHANNELS 3 Zrotation Yrotation Xrotation
							End Site
							{
								OFFSET 4.083176 0.000000 0.000000 
							}
						}
					}
				}
			}
			JOINT rCollar
			{
				OFFSET -3.470700 6.669187 -0.816635 
				CHANNELS 3 Yrotation Zrotation Xrotation
				JOINT rShldr
				{
					OFFSET -3.198488 0.000000 0.000000 
					CHANNELS 3 Zrotation Yrotation Xrotation
					JOINT rForeArm
					{
						OFFSET -10.139888 0.000000 0.000000 
						CHANNELS 3 Yrotation Zrotation Xrotation
						JOINT rHand
						{
							OFFSET -8.370511 0.000000 0.000000 
							CHANNELS 3 Zrotation Yrotation Xrotation
							End Site
							{
								OFFSET -4.083176 0.000000 0.000000 
							}
						}
					}
				}
			}
		}
	}
	JOINT lThigh
	{
		OFFSET 5.308129 -1.633274 1.361059 
		CHANNELS 3 Xrotation Zrotation Yrotation
		JOINT lShin
		{
			OFFSET -2.041588 -20.007561 0.000000 
			CHANNELS 3 Xrotation Zrotation Yrotation
			JOINT lFoot
			{
				OFFSET 0.000000 -19.190928 -1.224953 
				CHANNELS 3 Xrotation Yrotation Zrotation
				End Site
				{
					OFFSET 0.000000 -2.449906 4.627600 
				}
			}
		}
	}
	JOINT rThigh
	{
		OFFSET -5.308129 -1.633274 1.361059 
		CHANNELS 3 Xrotation Zrotation Yrotation
		JOINT rShin
		{
			OFFSET 2.041588 -20.007561 0.000000 
			CHANNELS 3 Xrotation Zrotation Yrotation
			JOINT rFoot
			{
				OFFSET 0.000000 -19.190928 -1.224953 
				CHANNELS 3 Xrotation Yrotation Zrotation
				End Site
				{
					OFFSET 0.000000 -2.449906 4.627600 
				}
			}
		}
	}
}
MOTION
Frames: 8
Frame Time: 0.033333
-0.739117 15.350003 0.352949 9.140626 11.621094 128.625015 51.767235 -9.265011 -4.205865 -16.513672 9.833986 4.464559 51.063168 8.107644 2.471410 -85.292969 -11.201170 59.882816 2.000000 -2.000000 0.000000 -74.375000 -24.931643 -12.519532 -97.826645 0.371333 -2.912803 26.746195 39.962124 8.100145 -2.000000 2.000000 0.000000 70.585938 15.380858 -19.843750 108.294930 -1.462123 -2.995383 -45.706024 -38.884712 32.417290 -75.849030 5.263850 9.585832 39.739792 -4.019542 -3.380261 8.789732 -11.391191 -0.413377 -74.819412 -10.516906 -1.371071 35.167881 4.130379 2.851658 20.726187 3.522668 0.891080 
-0.739182 15.366201 0.352347 9.140626 11.621094 128.625015 51.750713 -9.149760 -4.068703 -16.513672 9.833986 4.464559 51.063168 8.107644 2.471410 -85.166016 -11.386719 60.107422 2.000000 -2.000000 0.000000 -74.550781 -25.107422 -12.714844 -97.659988 0.001752 -3.214038 26.759089 39.884304 8.066956 -2.000000 2.000000 0.000000 70.458992 15.390624 -20.007175 108.491295 -1.294693 -3.015035 -45.516296 -38.896088 32.394165 -75.849030 5.263850 9.585832 39.739792 -4.019544 -3.380262 8.789731 -11.391191 -0.413377 -74.819412 -10.516910 -1.371070 35.167881 4.130380 2.851657 20.726187 3.522668 0.891080 
-0.740558 15.366201 0.351156 9.140626 11.621094 128.625015 51.773819 -9.060817 -4.221452 -16.513672 9.833986 4.464559 51.063168 8.107644 2.471410 -85.166016 -11.386719 60.107422 2.000000 -2.000000 0.000000 -74.365234 -25.078125 -12.900390 -97.650864 0.361584 -2.912237 26.063677 39.797344 7.743836 -2.000000 2.000000 0.000000 70.468750 15.205078 -19.951174 108.491295 -1.294693 -3.015035 -45.613934 -38.851398 32.615688 -75.839066 5.234405 9.773031 39.564247 -4.009808 -3.352974 8.890285 -11.454330 -0.605448 -74.819412 -10.516906 -1.371071 34.808125 4.150186 2.653769 20.767305 3.526579 0.695289 
-0.743003 15.368401 0.349478 9.140625 11.445313 128.781235 51.949600 -9.060817 -4.221452 -16.513672 9.833986 4.464559 51.063168 8.107644 2.471410 -84.990234 -11.425779 60.253906 2.000000 -2.000000 0.000000 -74.453125 -24.980467 -12.851562 -97.669464 -0.173174 -3.194142 26.580309 39.508163 8.146177 -2.000000 2.000000 0.000000 70.273438 15.371095 -19.665379 108.470695 -1.471872 -2.995947 -45.613934 -38.851398 32.615688 -75.836372 5.048332 9.898692 39.565208 -4.002441 -3.340809 8.892150 -11.670413 -0.304065 -74.819397 -10.517235 -1.370840 34.808533 4.149565 2.643888 20.713400 3.277644 1.158787 
-0.746271 15.388190 0.347442 9.140625 11.445313 128.781235 51.949600 -9.060817 -4.221452 -16.513672 9.833986 4.464559 51.063168 8.107644 2.471410 -84.804688 -11.464842 60.398453 2.000000 -2.000000 0.000000 -74.453125 -24.980467 -12.851562 -97.669464 -0.173174 -3.194142 26.887856 39.516464 8.400521 -2.000000 2.000000 0.000000 70.273438 15.371095 -19.665379 108.470695 -1.471872 -2.995947 -45.613934 -38.851398 32.615688 -75.836372 5.048329 9.898691 39.565208 -4.002441 -3.340809 8.892148 -11.670414 -0.304065 -74.819397 -10.517237 -1.370840 34.808533 4.149564 2.643887 20.701891 3.295561 1.133607 
-0.750119 15.394089 0.345150 9.140625 11.445313 128.781235 51.949600 -9.060817 -4.221452 -16.513672 9.833986 4.464559 51.063168 8.107644 2.471410 -84.804688 -11.464842 60.398453 2.000000 -2.000000 0.000000 -74.453125 -24.980467 -12.851562 -97.669464 -0.173174 -3.194142 27.102674 39.512543 8.434177 -2.000000 2.000000 0.000000 70.078133 15.390624 -19.675146 108.470695 -1.471872 -2.995947 -45.803684 -38.840031 32.638809 -75.836372 5.048332 9.898692 39.565208 -4.002441 -3.340809 8.892147 -11.670414 -0.304065 -74.620811 -10.682918 -1.396074 34.811253 4.175095 2.777523 20.888599 3.514038 0.855313 
-0.754307 15.406242 0.342720 9.140625 11.445313 128.781235 51.949600 -9.060817 -4.221452 -16.513672 9.833986 4.288778 51.063168 8.107644 2.471410 -84.638672 -11.503905 60.361332 2.000000 -2.000000 0.000000 -74.423828 -25.126955 -12.865475 -97.845245 -0.163424 -3.194706 27.531467 39.524349 8.521074 -2.000000 2.000000 0.000000 70.078133 15.390624 -19.675146 108.470695 -1.471872 -2.995947 -45.835091 -38.929413 32.221287 -75.836372 5.048331 9.898691 39.565208 -4.002440 -3.340809 8.892150 -11.670413 -0.304065 -74.620811 -10.682914 -1.396074 34.811253 4.175094 2.777523 20.888596 3.514038 0.855313 
-0.758591 15.418395 0.340267 9.140625 11.445313 128.605453 51.949600 -9.060817 -4.221452 -16.513672 9.833986 4.288778 51.063168 8.107644 2.471410 -84.462891 -11.552733 60.507813 2.000000 -2.000000 0.000000 -74.335938 -25.117188 -12.519532 -97.826645 0.371333 -2.912803 27.352322 39.763687 8.355808 -2.000000 2.000000 0.000000 70.078133 15.390624 -19.675146 108.470695 -1.471872 -2.995947 -45.925060 -38.727917 32.303093 -75.836372 5.048337 9.898688 39.387817 -4.002410 -3.345902 8.863467 -11.743056 -0.176282 -74.620811 -10.682912 -1.396078 34.811253 4.175094 2.777522 20.877014 3.526014 0.847999 
